<svg width="24" height="24" viewBox="0 0 24 24" fill="none" xmlns="http://www.w3.org/2000/svg">
<path d="M21 8.96273C21 8.01242 20.7888 7.48447 20.5776 6.85093C20.3665 6.32298 20.0497 5.79503 19.6273 5.37267C19.205 4.84472 18.677 4.63354 18.1491 4.42236C17.6211 4.21118 16.9876 4.10559 16.0373 4C15.087 4 14.7702 4 12.4472 4C10.2298 4 9.91304 4 8.96273 4C8.01242 4 7.48447 4.21118 6.85093 4.42236C6.32298 4.63354 5.79503 4.95031 5.37267 5.37267C4.95031 5.90062 4.63354 6.32298 4.42236 6.95652C4.21118 7.48447 4.10559 8.11801 4 8.96273C4 9.91304 4 10.2298 4 12.4472C4 14.7702 4 15.087 4 15.9317C4 16.882 4.21118 17.4099 4.42236 18.0435C4.63354 18.5714 4.95031 19.0994 5.37267 19.5217C5.90062 20.0497 6.32298 20.2609 6.85093 20.472C7.37888 20.6832 8.01242 20.7888 8.96273 20.8944C9.91304 20.8944 10.1242 20.8944 12.4472 20.8944C14.7702 20.8944 15.087 20.8944 15.9317 20.8944C16.882 20.8944 17.4099 20.6832 18.0435 20.472C18.5714 20.2609 19.0994 19.9441 19.5217 19.5217C20.0497 18.9938 20.2609 18.5714 20.472 18.0435C20.6832 17.5155 20.7888 16.882 20.8944 15.9317C21 14.9814 20.8944 14.7702 20.8944 12.4472C20.8944 10.1242 21 9.91304 21 8.96273ZM12.4472 16.882C10.0186 16.882 8.11801 14.8758 8.11801 12.5528C8.11801 10.1242 10.1242 8.2236 12.4472 8.2236C14.8758 8.2236 16.7764 10.2298 16.7764 12.5528C16.882 14.8758 14.8758 16.882 12.4472 16.882ZM16.9876 8.96273C16.4596 8.96273 15.9317 8.54037 15.9317 7.90683C15.9317 7.37888 16.354 6.85093 16.9876 6.85093C17.5155 6.85093 18.0435 7.27329 18.0435 7.90683C18.0435 8.54037 17.6211 8.96273 16.9876 8.96273Z" fill="#E8E8E8"/>
<path d="M15.2976 12.4485C15.2976 14.0323 14.0305 15.2994 12.4466 15.2994C10.8628 15.2994 9.5957 14.0323 9.5957 12.4485C9.5957 10.8646 10.9684 9.70312 12.4466 9.70312C14.0305 9.70312 15.2976 10.9702 15.2976 12.4485Z" fill="#E8E8E8"/>
</svg>
