<svg width="24" height="24" viewBox="0 0 24 24" fill="none" xmlns="http://www.w3.org/2000/svg">
<path d="M19.6522 3H3.35362C2.60679 3 2 3.58964 2 4.31348V19.9045C2 20.6283 2.60679 21.218 3.35362 21.218H19.6522C20.399 21.218 21.0101 20.6283 21.0101 19.9045V4.31348C21.0101 3.58964 20.399 3 19.6522 3ZM7.74545 18.6154H4.92789V9.9212H7.74969V18.6154H7.74545ZM6.33667 8.73378C5.43284 8.73378 4.70299 8.03027 4.70299 7.16817C4.70299 6.30607 5.43284 5.60257 6.33667 5.60257C7.23625 5.60257 7.97035 6.30607 7.97035 7.16817C7.97035 8.03434 7.24049 8.73378 6.33667 8.73378ZM18.3071 18.6154H15.4895V14.3862C15.4895 13.3777 15.4683 12.0805 14.0256 12.0805C12.5574 12.0805 12.3325 13.1785 12.3325 14.313V18.6154H9.51491V9.9212H12.2179V11.1086H12.2561C12.6337 10.4254 13.5545 9.70568 14.9251 9.70568C17.7766 9.70568 18.3071 11.5071 18.3071 13.8495V18.6154Z" fill="#E8E8E8"/>
</svg>
