<svg width="24" height="24" viewBox="0 0 24 24" fill="none" xmlns="http://www.w3.org/2000/svg">
<path d="M18.6346 7.84783C18.6457 8.01669 18.6457 8.18559 18.6457 8.35445C18.6457 13.505 15.0522 19.4396 8.48429 19.4396C6.46084 19.4396 4.58116 18.8003 3 17.6906C3.28749 17.7268 3.56389 17.7388 3.86245 17.7388C5.53203 17.7388 7.06898 17.1237 8.29631 16.0743C6.72621 16.0381 5.41042 14.9163 4.95708 13.3723C5.17824 13.4085 5.39936 13.4326 5.63158 13.4326C5.95222 13.4326 6.2729 13.3844 6.57142 13.3C4.93499 12.9381 3.70762 11.37 3.70762 9.47623V9.428C4.18305 9.7175 4.73595 9.89843 5.32193 9.92252C4.35997 9.2229 3.72974 8.02876 3.72974 6.67778C3.72974 5.95406 3.90662 5.29064 4.21624 4.71165C5.97431 7.07584 8.61695 8.61978 11.5802 8.78868C11.5249 8.49918 11.4917 8.19766 11.4917 7.8961C11.4917 5.749 13.084 4 15.0632 4C16.0915 4 17.0202 4.47042 17.6726 5.23034C18.4798 5.06148 19.2538 4.73579 19.9393 4.28949C19.6739 5.19418 19.11 5.9541 18.3692 6.43655C19.0879 6.35216 19.7845 6.13499 20.4258 5.83347C19.9394 6.60542 19.3312 7.29294 18.6346 7.84783Z" fill="#E8E8E8"/>
</svg>
